<svg id="Layer_1" data-name="Layer 1" xmlns="http://www.w3.org/2000/svg" viewBox="0 0 48.0443 37.9183"><title>btn-next</title><path d="M40.0493,39.6877c1.5833-6.6838,5.1775-12.5191,8.13-18.5913,1.713-3.5223,1.0259-5.29-2.1312-7.152A118.361,118.361,0,0,1,33.1455,5.4253C28.5491,1.8282,23.6239,1.11,17.6668,2.3c2.8741,3.5559,6.6479,5.584,9.9688,8.0979,8.2035,6.21,8.178,6.1164,2.7292,15.1241-2.8331,4.6833-6.1861,9.0686-8.3155,14.1662Z" transform="translate(-1.0493 -1.7695)"/><path d="M18.0493,39.6877c3.9128-6.1939,7.6859-12.4826,11.7968-18.542,2.0838-3.0714,2.222-5.115-1.1777-7.2774A67.5189,67.5189,0,0,1,18.713,6.346C14.1373,2.061,8.968,1.1106,2.0873,2.5478c4.4,3.82,8.1888,7.417,12.3075,10.5853,3.2831,2.5256,3.93,4.497.9694,7.9713-5.0658,5.9437-9.573,12.3635-14.3149,18.5833Z" transform="translate(-1.0493 -1.7695)"/></svg>