<svg id="Layer_1" data-name="Layer 1" xmlns="http://www.w3.org/2000/svg" viewBox="0 0 48.0443 37.9183"><title>btn-prev</title><path d="M10.0936,39.6877C8.51,33.0039,4.9161,27.1686,1.9631,21.0964.25,17.5741.9373,15.8065,4.0943,13.9444A118.3514,118.3514,0,0,0,16.9974,5.4253C21.5939,1.8282,26.5191,1.11,32.4762,2.3c-2.8742,3.5559-6.648,5.584-9.9688,8.0979-8.2036,6.21-8.178,6.1164-2.7292,15.1241,2.833,4.6833,6.186,9.0686,8.3154,14.1662Z" transform="translate(-1.0493 -1.7695)"/><path d="M32.0936,39.6877c-3.9128-6.1939-7.6858-12.4826-11.7968-18.542-2.0837-3.0714-2.2219-5.115,1.1777-7.2774A67.5137,67.5137,0,0,0,31.43,6.346c4.5757-4.285,9.7451-5.2354,16.6258-3.7982-4.4,3.82-8.1889,7.417-12.3075,10.5853-3.2831,2.5256-3.93,4.497-.9695,7.9713,5.0658,5.9437,9.5731,12.3635,14.3149,18.5833Z" transform="translate(-1.0493 -1.7695)"/></svg>